<!-- sample rectangle -->
<svg xmlns="http://www.w3.org/2000/svg" xmlns:xlink="http://www.w3.org/1999/xlink" viewBox="0 0 300 300" width="300" height="300" style="width: 100%; height: 100%; transform: translate3d(0px, 0px, 0px);" preserveAspectRatio="xMidYMid meet"><defs><clipPath id="__lottie_element_2038"><rect width="300" height="300" x="0" y="0"></rect></clipPath></defs><g clip-path="url(#__lottie_element_2038)"><g style="display: block;" transform="matrix(0.9902680516242981,-0.13917310535907745,0.13917310535907745,0.9902680516242981,138.24752807617188,150.8218231201172)" opacity="1"><g opacity="1" transform="matrix(1,0,0,1,0,0)"><g opacity="1" transform="matrix(1,0,0,1,0,0)"><g opacity="1" transform="matrix(1,0,0,1,0,0)"><path fill="rgb(255,175,69)" fill-opacity="1" d=" M-4.035999774932861,-29.400999069213867 C-4.035999774932861,-29.400999069213867 -4.035999774932861,82.06700134277344 -4.035999774932861,82.06700134277344 C-4.035999774932861,83.38500213623047 -2.9760000705718994,84.44499969482422 -1.684000015258789,84.44499969482422 C-0.3659999966621399,84.44499969482422 0.6940000057220459,83.38500213623047 0.6940000057220459,82.06700134277344 C0.6940000057220459,82.06700134277344 0.6940000057220459,-29.400999069213867 0.6940000057220459,-29.400999069213867 C0.6940000057220459,-29.400999069213867 -4.035999774932861,-29.400999069213867 -4.035999774932861,-29.400999069213867z"></path></g></g><g opacity="1" transform="matrix(1,0,0,1,0,0)"><g opacity="1" transform="matrix(1,0,0,1,0,0)"><path fill="rgb(247,157,38)" fill-opacity="1" d=" M-4.035999774932861,-29.400999069213867 C-4.035999774932861,-29.400999069213867 -4.035999774932861,25.511999130249023 -4.035999774932861,25.511999130249023 C-1.9490000009536743,27.729999542236328 -0.3569999933242798,27.447999954223633 0.6940000057220459,24.426000595092773 C0.6940000057220459,24.426000595092773 0.6940000057220459,-29.400999069213867 0.6940000057220459,-29.400999069213867 C0.6940000057220459,-29.400999069213867 -4.035999774932861,-29.400999069213867 -4.035999774932861,-29.400999069213867z"></path></g></g></g><g opacity="1" transform="matrix(-1,0,0,-1,-3.4200000762939453,-58.29399871826172)"><g opacity="1" transform="matrix(1,0,0,1,0,0)"><g opacity="1" transform="matrix(1,0,0,1,0,0)"><g opacity="1" transform="matrix(1,0,0,1,0,0)"><g opacity="1" transform="matrix(1,0,0,1,0,0)"><g opacity="1" transform="matrix(1,0,0,1,0,0)"><path fill="rgb(252,73,73)" fill-opacity="1" d=" M-2.6010000705718994,-35.191001892089844 C-15.940999984741211,-30.08099937438965 -31.21500015258789,-29.97599983215332 -44.54600143432617,-35.007999420166016 C-49.02000045776367,-44.85599899291992 -51.808998107910156,-55.07899856567383 -50.92499923706055,-66.3740005493164 C-50.62900161743164,-69.97100067138672 -49.944000244140625,-73.77799987792969 -48.762001037597656,-77.17400360107422 C-46.428001403808594,-83.86699676513672 -44.104000091552734,-81.10399627685547 -40.698001861572266,-76.4729995727539 C-21.61199951171875,-50.720001220703125 -6.053999900817871,-39.16600036621094 -2.6010000705718994,-35.191001892089844z"></path></g></g><g opacity="1" transform="matrix(1,0,0,1,0,0)"><g opacity="1" transform="matrix(1,0,0,1,0,0)"><path fill="rgb(237,47,47)" fill-opacity="1" d=" M-2.6010000705718994,-35.191001892089844 C-15.940999984741211,-30.08099937438965 -31.21500015258789,-29.97599983215332 -44.54600143432617,-35.007999420166016 C-46.737998962402344,-39.83100128173828 -48.8380012512207,-45.435001373291016 -49.847999572753906,-50.678001403808594 C-40.25199890136719,-38.345001220703125 -24.68000030517578,-33.678001403808594 -10.51099967956543,-37.45500183105469 C-9.020999908447266,-37.85599899291992 -7.5229997634887695,-38.35200119018555 -5.985000133514404,-38.47800064086914 C-4.814000129699707,-37.452999114990234 -3.634999990463257,-36.38199996948242 -2.6010000705718994,-35.191001892089844z"></path></g></g><g opacity="1" transform="matrix(1,0,0,1,0,0)"><g opacity="1" transform="matrix(1,0,0,1,0,0)"><path fill="rgb(253,98,93)" fill-opacity="1" d=" M-2.6089999675750732,-35.185001373291016 C-15.949000358581543,-30.076000213623047 -31.20599937438965,-29.97100067138672 -44.542999267578125,-35.00600051879883 C-41.07500076293945,-27.437000274658203 -36.59400177001953,-20.283000946044922 -31.861000061035156,-13.397000312805176 C-30.43400001525879,-11.321000099182129 -28.87700080871582,-9.170000076293945 -26.572999954223633,-8.116999626159668 C-22.952999114990234,-6.461999893188477 -18.687000274658203,-8.005000114440918 -15.173999786376953,-9.895999908447266 C-9.166000366210938,-13.130999565124512 -4.120999813079834,-17.613000869750977 -1.315999984741211,-23.85300064086914 C0.02199999988079071,-26.82900047302246 1.1579999923706055,-28.999000549316406 -0.4009999930858612,-32.04899978637695 C-0.9739999771118164,-33.17100143432617 -1.74399995803833,-34.20800018310547 -2.6089999675750732,-35.185001373291016z"></path></g></g><g opacity="1" transform="matrix(1,0,0,1,0,0)"><g opacity="1" transform="matrix(1,0,0,1,0,0)"><path fill="rgb(63,84,232)" fill-opacity="1" d=" M50.09299850463867,-80.37899780273438 C50.7130012512207,-78.31199645996094 48.45399856567383,-76.62000274658203 46.55500030517578,-75.58000183105469 C27.343000411987305,-65.03700256347656 11.413999557495117,-49.1609992980957 2.561000108718872,-34.45800018310547 C-0.6710000038146973,-49.404998779296875 -2.9119999408721924,-64.64299774169922 3.6610000133514404,-78.54100036621094 C20.857999801635742,-86.05400085449219 35.64099884033203,-86.33899688720703 46.78300094604492,-82.8290023803711 C48.15700149536133,-82.40599822998047 49.66999816894531,-81.7229995727539 50.09299850463867,-80.37899780273438z"></path></g></g><g opacity="1" transform="matrix(1,0,0,1,0,0)"><g opacity="1" transform="matrix(1,0,0,1,0,0)"><path fill="rgb(41,70,211)" fill-opacity="1" d=" M3.802000045776367,-38.19599914550781 C3.802000045776367,-38.19599914550781 4.296999931335449,-40.10200119018555 4.296999931335449,-40.10200119018555 C4.26200008392334,-39.07899856567383 4.223999977111816,-38.08000183105469 4.189000129699707,-37.05699920654297 C4.189000129699707,-37.05699920654297 3.8480000495910645,-36.573001861572266 3.8480000495910645,-36.573001861572266 C3.4730000495910645,-36.01100158691406 3.0380001068115234,-35.25 2.561000108718872,-34.45800018310547 C-0.6710000038146973,-49.404998779296875 -2.9119999408721924,-64.64299774169922 3.6610000133514404,-78.54100036621094 C7.775000095367432,-80.33799743652344 11.678000450134277,-81.65899658203125 13.187999725341797,-82.06500244140625 C5.236999988555908,-69.0770034790039 1.7380000352859497,-53.319000244140625 3.802000045776367,-38.19599914550781z"></path></g></g><g opacity="1" transform="matrix(1,0,0,1,0,0)"><g opacity="1" transform="matrix(1,0,0,1,0,0)"><path fill="rgb(87,98,239)" fill-opacity="1" d=" M3.6559998989105225,-78.54399871826172 C-4.114999771118164,-75.17900085449219 -11.479999542236328,-70.84600067138672 -18.625,-66.28399658203125 C-26.20199966430664,-61.44599914550781 -28.18400001525879,-57.356998443603516 -23.1200008392334,-49.755001068115234 C-18.816999435424805,-43.292999267578125 -13.364999771118164,-38.54199981689453 -7.61899995803833,-33.43000030517578 C-6.000999927520752,-31.989999771118164 -4.484000205993652,-29.51799964904785 -2.0190000534057617,-29.94700050354004 C-0.07000000029802322,-30.285999298095703 1.3960000276565552,-32.49800109863281 2.569000005722046,-34.46799850463867 C-0.6940000057220459,-49.494998931884766 -2.9110000133514404,-64.55799865722656 3.6559998989105225,-78.54399871826172z"></path></g></g><g opacity="1" transform="matrix(1,0,0,1,0,0)"><g opacity="1" transform="matrix(1,0,0,1,0,0)"><path fill="rgb(225,83,253)" fill-opacity="1" d=" M25.93199920654297,-13.876999855041504 C20.673999786376953,-20.299999237060547 14.112000465393066,-25.670000076293945 6.748000144958496,-29.573999404907227 C4.684999942779541,-30.667999267578125 4.664000034332275,-32.540000915527344 2.742000102996826,-33.86199951171875 C1.5290000438690186,-30.948999404907227 0.026000000536441803,-28.18400001525879 -1.6710000038146973,-25.534000396728516 C2.1540000438690186,-12.895999908447266 2.3499999046325684,0.7940000295639038 -0.9710000157356262,13.593999862670898 C5.7870001792907715,10.123000144958496 19.36199951171875,1.6399999856948853 26.006999969482422,-3.056999921798706 C30.656999588012695,-6.3429999351501465 29.472999572753906,-9.550999641418457 25.93199920654297,-13.876999855041504z"></path></g></g><g opacity="1" transform="matrix(1,0,0,1,0,0)"><g opacity="1" transform="matrix(1,0,0,1,0,0)"><path fill="rgb(194,52,224)" fill-opacity="1" d=" M-0.9679999947547913,13.593000411987305 C-11.22599983215332,18.89900016784668 -22.989999771118164,21.87299919128418 -34.44499969482422,20.881999969482422 C-37.68600082397461,20.594999313354492 -54.763999938964844,19.43000030517578 -46.65599822998047,13.458000183105469 C-30.856000900268555,1.8170000314712524 -12.479999542236328,-8.522000312805176 -1.6790000200271606,-25.542999267578125 C2.1510000228881836,-12.902000427246094 2.359999895095825,0.7950000166893005 -0.9679999947547913,13.593000411987305z"></path></g></g><g opacity="1" transform="matrix(1,0,0,1,0,0)"><g opacity="1" transform="matrix(1,0,0,1,0,0)"><path fill="rgb(179,47,211)" fill-opacity="1" d=" M-0.9679999947547913,13.593000411987305 C-9.435999870300293,17.972999572753906 -17.975000381469727,20.288999557495117 -25.743000030517578,20.905000686645508 C-13.916000366210938,14.244999885559082 -7.695000171661377,2.8499999046325684 -4.327000141143799,-10.333000183105469 C-3.3440001010894775,-14.190999984741211 -2.677000045776367,-18.513999938964844 -4.039000034332275,-22.1299991607666 C-3.2160000801086426,-23.242000579833984 -2.4210000038146973,-24.374000549316406 -1.6790000200271606,-25.542999267578125 C2.1510000228881836,-12.902000427246094 2.359999895095825,0.7950000166893005 -0.9679999947547913,13.593000411987305z"></path></g></g><g opacity="1" transform="matrix(1,0,0,1,0,0)"><g opacity="1" transform="matrix(1,0,0,1,0,0)"><path fill="rgb(255,213,95)" fill-opacity="1" d=" M22.0939998626709,-55.992000579833984 C15.371999740600586,-53.375999450683594 7.381999969482422,-47.57500076293945 1.5240000486373901,-39.74100112915039 C-3.0429999828338623,-33.632999420166016 -2.36899995803833,-34.7760009765625 -3.7980000972747803,-31.322999954223633 C-4.441999912261963,-29.766000747680664 -3.680999994277954,-27.99799919128418 -2.0940001010894775,-27.430999755859375 C-1.6740000247955322,-27.2810001373291 -1.2569999694824219,-27.12700080871582 -0.8399999737739563,-26.9689998626709 C14.277999877929688,-31.101999282836914 29.604999542236328,-34.33599853515625 43.948001861572266,-27.81100082397461 C40.24399948120117,-36.071998596191406 35.56399917602539,-44.06399917602539 30.79800033569336,-51.92499923706055 C28.524999618530273,-55.67399978637695 26.21299934387207,-57.595001220703125 22.0939998626709,-55.992000579833984z"></path></g></g><g opacity="1" transform="matrix(1,0,0,1,0,0)"><g opacity="1" transform="matrix(1,0,0,1,0,0)"><path fill="rgb(255,204,33)" fill-opacity="1" d=" M50.3650016784668,14.906000137329102 C49.375999450683594,20.30500030517578 45.55799865722656,21.298999786376953 42.35200119018555,15.706999778747559 C36.74300003051758,6.039999961853027 30.513999938964844,-3.36899995803833 22.6299991607666,-11.329999923706055 C16.400999069213867,-17.584999084472656 9.49899959564209,-22.315000534057617 3.2960000038146973,-25.236000061035156 C2.0810000896453857,-25.83099937438965 0.8650000095367432,-26.32200050354004 -0.2720000147819519,-26.76099967956543 C-0.4790000021457672,-26.839000701904297 -0.6589999794960022,-26.889999389648438 -0.8399999737739563,-26.968000411987305 C-0.6589999794960022,-27.020000457763672 -0.4779999852180481,-27.045000076293945 -0.296999990940094,-27.097000122070312 C14.590999603271484,-31.180999755859375 29.89299964904785,-34.23099899291992 43.95399856567383,-27.795000076293945 C44.10900115966797,-27.433000564575195 44.29100036621094,-27.045000076293945 44.41999816894531,-26.683000564575195 C48.75199890136719,-16.06800079345703 52.77299880981445,2.687999963760376 50.3650016784668,14.906000137329102z"></path></g></g><g opacity="1" transform="matrix(1,0,0,1,0,0)"><g opacity="1" transform="matrix(1,0,0,1,0,0)"><path fill="rgb(249,189,22)" fill-opacity="1" d=" M49.5890007019043,-8.357000350952148 C42.17100143432617,-15.206999778747559 34.52000045776367,-20.94499969482422 25.034000396728516,-24.22800064086914 C19.579999923706055,-26.062999725341797 13.763999938964844,-26.966999053955078 8.026000022888184,-26.347000122070312 C6.708000183105469,-26.218000411987305 4.89900016784668,-25.4950008392334 3.2960000038146973,-25.236000061035156 C3.2699999809265137,-25.209999084472656 3.24399995803833,-25.209999084472656 3.2179999351501465,-25.209999084472656 C2.055000066757202,-25.77899932861328 0.9169999957084656,-26.270000457763672 -0.2720000147819519,-26.735000610351562 C-0.2720000147819519,-26.735000610351562 -0.2720000147819519,-26.76099967956543 -0.2720000147819519,-26.76099967956543 C-0.2980000078678131,-26.86400032043457 -0.296999990940094,-26.968000411987305 -0.296999990940094,-27.097000122070312 C14.590999603271484,-31.180999755859375 29.89299964904785,-34.23099899291992 43.95399856567383,-27.795000076293945 C46.40399932861328,-22.07699966430664 48.426998138427734,-14.517000198364258 49.5890007019043,-8.357000350952148z"></path></g></g><g opacity="1" transform="matrix(1,0,0,1,0,0)"><g opacity="1" transform="matrix(1,0,0,1,0,0)"><path fill="rgb(255,255,255)" fill-opacity="1" d=" M3.2709999084472656,-29.743999481201172 C3.7669999599456787,-26.89299964904785 1.8580000400543213,-24.18000030517578 -0.9929999709129333,-23.68400001525879 C-3.8440001010894775,-23.187999725341797 -6.557000160217285,-25.097000122070312 -7.052999973297119,-27.947999954223633 C-7.548999786376953,-30.798999786376953 -5.639999866485596,-33.512001037597656 -2.7890000343322754,-34.007999420166016 C0.06199999898672104,-34.50400161743164 2.7750000953674316,-32.595001220703125 3.2709999084472656,-29.743999481201172z"></path></g></g></g></g><g opacity="1" transform="matrix(1,0,0,1,0,0)"><g opacity="1" transform="matrix(1,0,0,1,0,0)"><path fill="rgb(249,191,30)" fill-opacity="1" d=" M8.826000213623047,-39.12799835205078 C8.526000022888184,-39.321998596191406 8.437000274658203,-39.72200012207031 8.630000114440918,-40.02199935913086 C12.140000343322754,-45.50199890136719 18.06100082397461,-49.45500183105469 24.4689998626709,-50.597999572753906 C24.80699920654297,-50.67100143432617 25.155000686645508,-50.426998138427734 25.218000411987305,-50.07600021362305 C25.2810001373291,-49.724998474121094 25.047000885009766,-49.388999938964844 24.695999145507812,-49.32600021362305 C18.636999130249023,-48.24599838256836 13.036999702453613,-44.50699996948242 9.718000411987305,-39.32500076293945 C9.52299976348877,-39.02199935913086 9.12399959564209,-38.93899917602539 8.826000213623047,-39.12799835205078z"></path></g></g><g opacity="1" transform="matrix(1,0,0,1,0,0)"><g opacity="1" transform="matrix(1,0,0,1,0,0)"><path fill="rgb(249,191,30)" fill-opacity="1" d=" M19.913999557495117,-43.141998291015625 C19.777999877929688,-43.470001220703125 19.934999465942383,-43.8489990234375 20.263999938964844,-43.98500061035156 C20.263999938964844,-43.98500061035156 23.926000595092773,-45.492000579833984 23.926000595092773,-45.492000579833984 C24.72100067138672,-45.8129997253418 25.204999923706055,-44.62099838256836 24.417999267578125,-44.29499816894531 C24.417999267578125,-44.29499816894531 20.756999969482422,-42.78900146484375 20.756999969482422,-42.78900146484375 C20.427000045776367,-42.654998779296875 20.049999237060547,-42.810001373291016 19.913999557495117,-43.141998291015625z"></path></g></g><g opacity="1" transform="matrix(1,0,0,1,0,0)"><g opacity="1" transform="matrix(1,0,0,1,0,0)"><path fill="rgb(249,191,30)" fill-opacity="1" d=" M29.55699920654297,-40.36000061035156 C29.55699920654297,-40.36000061035156 28.986000061035156,-40.551998138427734 28.986000061035156,-40.551998138427734 C28.12299919128418,-40.84299850463867 28.565000534057617,-42.06399917602539 29.319000244140625,-41.801998138427734 C29.319000244140625,-41.801998138427734 29.400999069213867,-41.77399826049805 29.402000427246094,-41.77399826049805 C29.402000427246094,-41.77399826049805 29.958999633789062,-41.58700180053711 29.958999633789062,-41.58700180053711 C30.298999786376953,-41.47600173950195 30.483999252319336,-41.112998962402344 30.37299919128418,-40.77199935913086 C30.257999420166016,-40.422000885009766 29.8799991607666,-40.25 29.55699920654297,-40.36000061035156z"></path></g></g><g opacity="1" transform="matrix(1,0,0,1,0,0)"><g opacity="1" transform="matrix(1,0,0,1,0,0)"><path fill="rgb(252,73,73)" fill-opacity="1" d=" M-34.04899978637695,-24.643999099731445 C-34.375999450683594,-24.783000946044922 -34.52899932861328,-25.165000915527344 -34.388999938964844,-25.493000030517578 C-34.249000549316406,-25.819000244140625 -33.867000579833984,-25.969999313354492 -33.54100036621094,-25.83099937438965 C-30.56599998474121,-24.55900001525879 -27.16699981689453,-24.136999130249023 -23.965999603271484,-24.652000427246094 C-23.62299919128418,-24.70199966430664 -23.283000946044922,-24.468000411987305 -23.225000381469727,-24.117000579833984 C-23.16900062561035,-23.763999938964844 -23.40999984741211,-23.433000564575195 -23.761999130249023,-23.375 C-27.18600082397461,-22.823999404907227 -30.843000411987305,-23.270000457763672 -34.04899978637695,-24.643999099731445z"></path></g></g><g opacity="1" transform="matrix(1,0,0,1,0,0)"><g opacity="1" transform="matrix(1,0,0,1,0,0)"><path fill="rgb(252,73,73)" fill-opacity="1" d=" M-31.391000747680664,-17.35700035095215 C-31.729000091552734,-17.47100067138672 -31.91200065612793,-17.839000701904297 -31.79800033569336,-18.177000045776367 C-31.68400001525879,-18.51300048828125 -31.312999725341797,-18.69499969482422 -30.979999542236328,-18.583999633789062 C-28.31599998474121,-17.687999725341797 -25.423999786376953,-17.336999893188477 -22.618000030517578,-17.535999298095703 C-21.785999298095703,-17.641000747680664 -21.64699935913086,-16.31100082397461 -22.520000457763672,-16.249000549316406 C-25.3439998626709,-16.030000686645508 -28.441999435424805,-16.367000579833984 -31.391000747680664,-17.35700035095215z"></path></g></g><g opacity="1" transform="matrix(1,0,0,1,0,0)"><g opacity="1" transform="matrix(1,0,0,1,0,0)"><path fill="rgb(252,73,73)" fill-opacity="1" d=" M-16.655000686645508,-27.368000030517578 C-16.655000686645508,-27.368000030517578 -13.428999900817871,-28.031999588012695 -13.428999900817871,-28.031999588012695 C-12.565999984741211,-28.177000045776367 -12.347999572753906,-26.93600082397461 -13.166000366210938,-26.764999389648438 C-13.166000366210938,-26.764999389648438 -16.395000457763672,-26.10099983215332 -16.395000457763672,-26.10099983215332 C-17.253999710083008,-25.948999404907227 -17.476999282836914,-27.195999145507812 -16.655000686645508,-27.368000030517578z"></path></g></g><g opacity="1" transform="matrix(1,0,0,1,0,0)"><g opacity="1" transform="matrix(1,0,0,1,0,0)"><path fill="rgb(252,73,73)" fill-opacity="1" d=" M-14.843999862670898,-21.549999237060547 C-14.843999862670898,-21.549999237060547 -13.338000297546387,-22.201000213623047 -13.338000297546387,-22.201000213623047 C-13.010000228881836,-22.34000015258789 -12.631999969482422,-22.19099998474121 -12.48900032043457,-21.864999771118164 C-12.347999572753906,-21.53700065612793 -12.498000144958496,-21.1560001373291 -12.826000213623047,-21.014999389648438 C-12.826000213623047,-21.014999389648438 -14.331000328063965,-20.363000869750977 -14.331000328063965,-20.363000869750977 C-15.123000144958496,-20.027000427246094 -15.625,-21.214000701904297 -14.843999862670898,-21.549999237060547z"></path></g></g><g opacity="1" transform="matrix(1,0,0,1,0,0)"><g opacity="1" transform="matrix(1,0,0,1,0,0)"><path fill="rgb(63,84,232)" fill-opacity="1" d=" M-12.741000175476074,-44.57600021362305 C-16.347000122070312,-48.01900100708008 -18.479000091552734,-53.051998138427734 -18.441999435424805,-58.040000915527344 C-18.43899917602539,-58.395999908447266 -18.150999069213867,-58.680999755859375 -17.79599952697754,-58.680999755859375 C-17.795000076293945,-58.680999755859375 -17.79400062561035,-58.680999755859375 -17.791000366210938,-58.680999755859375 C-17.43400001525879,-58.678001403808594 -17.14699935913086,-58.38800048828125 -17.149999618530273,-58.029998779296875 C-17.18400001525879,-53.393001556396484 -15.20199966430664,-48.7130012512207 -11.847000122070312,-45.5099983215332 C-11.59000015258789,-45.26499938964844 -11.579999923706055,-44.85300064086914 -11.82699966430664,-44.59600067138672 C-12.069999694824219,-44.34299850463867 -12.473999977111816,-44.32500076293945 -12.741000175476074,-44.57600021362305z"></path></g></g><g opacity="1" transform="matrix(1,0,0,1,0,0)"><g opacity="1" transform="matrix(1,0,0,1,0,0)"><path fill="rgb(63,84,232)" fill-opacity="1" d=" M-10.019000053405762,-53.632999420166016 C-11.189000129699707,-55.856998443603516 -11.725000381469727,-58.361000061035156 -11.569999694824219,-60.875 C-11.548999786376953,-61.22800064086914 -11.237000465393066,-61.494998931884766 -10.88599967956543,-61.47999954223633 C-10.529000282287598,-61.457000732421875 -10.258999824523926,-61.150001525878906 -10.279999732971191,-60.79399871826172 C-10.420000076293945,-58.516998291015625 -9.934000015258789,-56.24700164794922 -8.875,-54.233001708984375 C-8.708000183105469,-53.91699981689453 -8.829999923706055,-53.527000427246094 -9.147000312805176,-53.36000061035156 C-9.45300006866455,-53.19900131225586 -9.850000381469727,-53.310001373291016 -10.019000053405762,-53.632999420166016z"></path></g></g><g opacity="1" transform="matrix(1,0,0,1,0,0)"><g opacity="1" transform="matrix(1,0,0,1,0,0)"><path fill="rgb(63,84,232)" fill-opacity="1" d=" M-6.605000019073486,-63.88600158691406 C-6.879000186920166,-64.83499908447266 -6.879000186920166,-65.87999725341797 -6.605000019073486,-66.8290023803711 C-6.363999843597412,-67.66000366210938 -5.129000186920166,-67.28800201416016 -5.36299991607666,-66.47100067138672 C-5.571000099182129,-65.75399780273438 -5.571000099182129,-64.96099853515625 -5.36299991607666,-64.24400329589844 C-5.264999866485596,-63.9010009765625 -5.460999965667725,-63.54199981689453 -5.803999900817871,-63.444000244140625 C-6.136000156402588,-63.345001220703125 -6.504000186920166,-63.5369987487793 -6.605000019073486,-63.88600158691406z"></path></g></g><g opacity="1" transform="matrix(1,0,0,1,0,0)"><g opacity="1" transform="matrix(1,0,0,1,0,0)"><path fill="rgb(63,84,232)" fill-opacity="1" d=" M-4.385000228881836,-42.93000030517578 C-5.396999835968018,-44.15399932861328 -5.822000026702881,-45.82099914550781 -5.519999980926514,-47.382999420166016 C-5.3520002365112305,-48.24800109863281 -4.093999862670898,-47.959999084472656 -4.250999927520752,-47.1349983215332 C-4.4770002365112305,-45.965999603271484 -4.146999835968018,-44.66899871826172 -3.388000011444092,-43.75299835205078 C-3.1610000133514404,-43.47800064086914 -3.200000047683716,-43.07099914550781 -3.4749999046325684,-42.84400177001953 C-3.740999937057495,-42.619998931884766 -4.150000095367432,-42.64899826049805 -4.385000228881836,-42.93000030517578z"></path></g></g><g opacity="1" transform="matrix(1,0,0,1,0,0)"><g opacity="1" transform="matrix(1,0,0,1,0,0)"><path fill="rgb(194,52,224)" fill-opacity="1" d=" M7.556000232696533,-2.0250000953674316 C8.967000007629395,-6.565999984741211 7.890999794006348,-11.847000122070312 4.816999912261963,-15.479000091552734 C4.586999893188477,-15.74899959564209 4.619999885559082,-16.158000946044922 4.89300012588501,-16.38800048828125 C5.165999889373779,-16.618000030517578 5.572000026702881,-16.584999084472656 5.803999900817871,-16.312000274658203 C9.156000137329102,-12.354000091552734 10.329999923706055,-6.593999862670898 8.791000366210938,-1.6410000324249268 C8.538999557495117,-0.8259999752044678 7.302000045776367,-1.2079999446868896 7.556000232696533,-2.0250000953674316z"></path></g></g><g opacity="1" transform="matrix(1,0,0,1,0,0)"><g opacity="1" transform="matrix(1,0,0,1,0,0)"><path fill="rgb(194,52,224)" fill-opacity="1" d=" M4.623000144958496,1.9630000591278076 C4.623000144958496,1.9630000591278076 3.996000051498413,-1.2730000019073486 3.996000051498413,-1.2730000019073486 C3.927999973297119,-1.6239999532699585 4.1570000648498535,-1.9620000123977661 4.506999969482422,-2.0299999713897705 C4.853000164031982,-2.0910000801086426 5.197000026702881,-1.871000051498413 5.265999794006348,-1.5199999809265137 C5.265999794006348,-1.5199999809265137 5.89300012588501,1.715999960899353 5.89300012588501,1.715999960899353 C5.960999965667725,2.066999912261963 5.73199987411499,2.4049999713897705 5.381999969482422,2.4730000495910645 C5.007999897003174,2.5409998893737793 4.689000129699707,2.2960000038146973 4.623000144958496,1.9630000591278076z"></path></g></g><g opacity="1" transform="matrix(1,0,0,1,0,0)"><g opacity="1" transform="matrix(1,0,0,1,0,0)"><path fill="rgb(194,52,224)" fill-opacity="1" d=" M12.583999633789062,-0.5759999752044678 C12.583999633789062,-0.5759999752044678 12.79800033569336,-2.946000099182129 12.79800033569336,-2.946000099182129 C12.831000328063965,-3.302000045776367 13.182000160217285,-3.5899999141693115 13.5,-3.5320000648498535 C13.855999946594238,-3.499000072479248 14.118000030517578,-3.186000108718872 14.085000038146973,-2.8299999237060547 C14.085000038146973,-2.8299999237060547 13.871999740600586,-0.46000000834465027 13.871999740600586,-0.46000000834465027 C13.795000076293945,0.39800000190734863 12.508000373840332,0.27900001406669617 12.583999633789062,-0.5759999752044678z"></path></g></g><g opacity="1" transform="matrix(1,0,0,1,0,0)"><g opacity="1" transform="matrix(1,0,0,1,0,0)"><path fill="rgb(194,52,224)" fill-opacity="1" d=" M5.979000091552734,-18.101999282836914 C5.979000091552734,-18.101999282836914 3.8369998931884766,-19.41699981689453 3.8369998931884766,-19.41699981689453 C3.5329999923706055,-19.604000091552734 3.437999963760376,-20.00200080871582 3.625,-20.30500030517578 C3.813999891281128,-20.613000869750977 4.215000152587891,-20.70400047302246 4.513000011444092,-20.517000198364258 C4.513000011444092,-20.517000198364258 6.65500020980835,-19.20199966430664 6.65500020980835,-19.20199966430664 C6.959000110626221,-19.014999389648438 7.053999900817871,-18.617000579833984 6.867000102996826,-18.31399917602539 C6.675000190734863,-18.000999450683594 6.269999980926514,-17.920000076293945 5.979000091552734,-18.101999282836914z"></path></g></g><g opacity="1" transform="matrix(1,0,0,1,0,0)"><g opacity="1" transform="matrix(1,0,0,1,0,0)"><path fill="rgb(194,52,224)" fill-opacity="1" d=" M16.722000122070312,-10.104999542236328 C16.722000122070312,-10.104999542236328 15.213000297546387,-12.6899995803833 15.213000297546387,-12.6899995803833 C14.779999732971191,-13.428999900817871 15.89900016784668,-14.081000328063965 16.32900047302246,-13.340999603271484 C16.32900047302246,-13.340999603271484 17.836999893188477,-10.755999565124512 17.836999893188477,-10.755999565124512 C18.017000198364258,-10.447999954223633 17.913000106811523,-10.052000045776367 17.604999542236328,-9.873000144958496 C17.30900001525879,-9.697999954223633 16.9060001373291,-9.786999702453613 16.722000122070312,-10.104999542236328z"></path></g></g><g opacity="1" transform="matrix(1,0,0,1,0,0)"><g opacity="1" transform="matrix(1,0,0,1,0,0)"><path fill="rgb(194,52,224)" fill-opacity="1" d=" M18.356000900268555,-3.5369999408721924 C17.999000549316406,-3.5369999408721924 17.709999084472656,-3.8269999027252197 17.709999084472656,-4.183000087738037 C17.709999084472656,-4.183000087738037 17.709999084472656,-5.692999839782715 17.709999084472656,-5.692999839782715 C17.709999084472656,-6.048999786376953 17.999000549316406,-6.339000225067139 18.356000900268555,-6.339000225067139 C18.71299934387207,-6.339000225067139 19.00200080871582,-6.048999786376953 19.00200080871582,-5.692999839782715 C19.00200080871582,-5.692999839782715 19.00200080871582,-4.183000087738037 19.00200080871582,-4.183000087738037 C19.00200080871582,-3.8269999027252197 18.71299934387207,-3.5369999408721924 18.356000900268555,-3.5369999408721924z"></path></g></g></g><g opacity="1" transform="matrix(1,0,0,1,0,0)"><g opacity="1" transform="matrix(1,0,0,1,0,0)"><g opacity="1" transform="matrix(1,0,0,1,0,0)"><path fill="rgb(255,255,255)" fill-opacity="1" d=" M-6.086999893188477,-70.31500244140625 C-6.086999893188477,-70.31500244140625 -6.086999893188477,-68.16899871826172 -6.086999893188477,-68.16899871826172 C-6.086999893188477,-66.9020004272461 -8.026000022888184,-66.9020004272461 -8.026000022888184,-68.16899871826172 C-8.026000022888184,-68.16899871826172 -8.026000022888184,-70.31500244140625 -8.026000022888184,-70.31500244140625 C-8.026000022888184,-71.55599975585938 -6.086999893188477,-71.55599975585938 -6.086999893188477,-70.31500244140625z"></path></g><g opacity="1" transform="matrix(1,0,0,1,0,0)"><path fill="rgb(255,255,255)" fill-opacity="1" d=" M7.09499979019165,-4.919000148773193 C6.7270002365112305,-4.183000087738037 6.334000110626221,-3.5850000381469727 5.570000171661377,-3.937000036239624 C5.336999893188477,-3.8340001106262207 5.0269999504089355,-3.8340001106262207 4.7170000076293945,-3.989000082015991 C2.3910000324249268,-5.281000137329102 3.2690000534057617,-7.01200008392334 5.0269999504089355,-7.116000175476074 C6.294000148773193,-7.192999839782715 7.120999813079834,-6.521999835968018 7.197999954223633,-5.617000102996826 C7.223999977111816,-5.591000080108643 7.223999977111816,-5.539999961853027 7.197999954223633,-5.513999938964844 C7.25,-5.359000205993652 7.197999954223633,-5.177999973297119 7.120999813079834,-4.997000217437744 C7.120999813079834,-4.9710001945495605 7.09499979019165,-4.945000171661377 7.09499979019165,-4.919000148773193z"></path></g><g opacity="1" transform="matrix(1,0,0,1,0,0)"><path fill="rgb(255,255,255)" fill-opacity="1" d=" M-31.41900062561035,-25.93400001525879 C-31.41900062561035,-25.908000946044922 -31.417999267578125,-25.881999969482422 -31.444000244140625,-25.856000900268555 C-31.674999237060547,-24.586999893188477 -34.58100128173828,-25.246000289916992 -34.75299835205078,-26.451000213623047 C-35.38399887084961,-27.23900032043457 -35.12799835205078,-28.322999954223633 -33.97700119018555,-28.466999053955078 C-33.95100021362305,-28.493000030517578 -33.92599868774414,-28.493000030517578 -33.900001525878906,-28.493000030517578 C-33.22800064086914,-28.777000427246094 -32.375,-28.59600067138672 -31.832000732421875,-27.950000762939453 C-30.975000381469727,-27.350000381469727 -30.993000030517578,-26.465999603271484 -31.41900062561035,-25.93400001525879z"></path></g><g opacity="1" transform="matrix(1,0,0,1,0,0)"><path fill="rgb(255,255,255)" fill-opacity="1" d=" M-6.940000057220459,-65.1449966430664 C-6.940000057220459,-65.1449966430664 -6.940000057220459,-64.4990005493164 -6.940000057220459,-64.4990005493164 C-6.940000057220459,-63.257999420166016 -8.878999710083008,-63.257999420166016 -8.878999710083008,-64.4990005493164 C-8.878999710083008,-64.4990005493164 -8.878999710083008,-65.1449966430664 -8.878999710083008,-65.1449966430664 C-8.878999710083008,-66.38600158691406 -6.940000057220459,-66.38600158691406 -6.940000057220459,-65.1449966430664z"></path></g><g opacity="1" transform="matrix(1,0,0,1,0,0)"><path fill="rgb(255,255,255)" fill-opacity="1" d=" M34.3390007019043,-37.099998474121094 C33.56399917602539,-36.6609992980957 32.86600112915039,-36.6870002746582 32.194000244140625,-36.99700164794922 C30.652000427246094,-36.22600173950195 29.46500015258789,-39.435001373291016 31.625,-39.94300079345703 C33.744998931884766,-40.459999084472656 35.73500061035156,-37.926998138427734 34.3390007019043,-37.099998474121094z"></path></g><g opacity="1" transform="matrix(1,0,0,1,0,0)"><path fill="rgb(255,255,255)" fill-opacity="1" d=" M8.026000022888184,-0.6290000081062317 C6.758999824523926,-0.6290000081062317 6.758999824523926,-2.566999912261963 8.026000022888184,-2.566999912261963 C9.267000198364258,-2.566999912261963 9.267000198364258,-0.6290000081062317 8.026000022888184,-0.6290000081062317z"></path></g><g opacity="1" transform="matrix(1,0,0,1,0,0)"><path fill="rgb(255,255,255)" fill-opacity="1" d=" M-28.98900032043457,-23.9689998626709 C-29.868000030517578,-23.09000015258789 -31.238000869750977,-24.459999084472656 -30.358999252319336,-25.339000701904297 C-30.358999252319336,-25.339000701904297 -30.152000427246094,-25.54599952697754 -30.152000427246094,-25.54599952697754 C-29.194000244140625,-26.503999710083008 -27.7189998626709,-24.815000534057617 -28.98900032043457,-23.9689998626709z"></path></g><g opacity="1" transform="matrix(1,0,0,1,0,0)"><path fill="rgb(255,255,255)" fill-opacity="1" d=" M27.95400047302246,-36.066001892089844 C27.95400047302246,-36.066001892089844 27.95400047302246,-35.85900115966797 27.95400047302246,-35.85900115966797 C27.95400047302246,-34.59199905395508 26.016000747680664,-34.59199905395508 26.016000747680664,-35.85900115966797 C26.016000747680664,-35.85900115966797 26.016000747680664,-36.066001892089844 26.016000747680664,-36.066001892089844 C26.016000747680664,-37.30699920654297 27.95400047302246,-37.30699920654297 27.95400047302246,-36.066001892089844z"></path></g></g></g></g></g><g style="display: block;" transform="matrix(1,0,0,1,340,150)" opacity="1"><g opacity="1" transform="matrix(1,0,0,1,0,0)"><path stroke-linecap="round" stroke-linejoin="round" fill-opacity="0" stroke="rgb(255,197,197)" stroke-opacity="1" stroke-width="1.276" d="M0 0"></path></g><g opacity="1" transform="matrix(1,0,0,1,0,0)"><path stroke-linecap="round" stroke-linejoin="round" fill-opacity="0" stroke="rgb(255,197,197)" stroke-opacity="1" stroke-width="1.276" d="M0 0"></path></g></g></g></svg>